<svg width="297" height="297" viewBox="0 0 297 297" fill="none" xmlns="http://www.w3.org/2000/svg">
<g filter="url(#filter0_d_1_3)">
<path d="M176.8 139.6L140.9 115.9C135.7 112.5 128.9 116.2 128.9 122.4V169.8C128.9 176 135.8 179.7 140.9 176.3L176.8 152.6C181.5 149.5 181.5 142.7 176.8 139.6Z" fill="url(#paint0_linear_1_3)"/>
</g>
<g filter="url(#filter1_d_1_3)">
<path d="M287.7 126.4H275.3H242.9H219.9C211.2 95.0005 182.6 71.9005 148.5 71.9005C114.4 71.9005 85.8 95.0005 77.3 126.4H54C62 81.4005 101.1 47.3005 148.4 47.3005C184 47.3005 215.1 66.7005 231.7 95.6005H280.5C261 41.6005 209.2 3.00048 148.5 3.00048C70.8 2.80048 8 65.7005 8 143.2C8 150.2 8.5 157.1 9.5 163.8H21.4H54.6H76.9C85 195.9 114 219.8 148.5 219.8C183 219.8 212.1 195.9 220.1 163.8H242C232.6 206.9 194.2 239.2 148.3 239.2C114.3 239.2 84.4 221.5 67.3 194.7H17.8C38.3 246.7 89 283.6 148.4 283.6C225.9 283.6 288.7 220.8 288.7 143.3C288.7 137.5 288.3 131.9 287.7 126.4ZM148.5 197.4C120.1 197.4 96.9 174.3 96.9 145.8C96.9 117.4 120 94.2005 148.5 94.2005C177 94.2005 200.1 117.3 200.1 145.8C200.1 174.2 177 197.4 148.5 197.4Z" fill="url(#paint1_linear_1_3)" shape-rendering="crispEdges"/>
</g>
<defs>
<filter id="filter0_d_1_3" x="124.9" y="114.607" width="59.425" height="70.986" filterUnits="userSpaceOnUse" color-interpolation-filters="sRGB">
<feFlood flood-opacity="0" result="BackgroundImageFix"/>
<feColorMatrix in="SourceAlpha" type="matrix" values="0 0 0 0 0 0 0 0 0 0 0 0 0 0 0 0 0 0 127 0" result="hardAlpha"/>
<feOffset dy="4"/>
<feGaussianBlur stdDeviation="2"/>
<feComposite in2="hardAlpha" operator="out"/>
<feColorMatrix type="matrix" values="0 0 0 0 0 0 0 0 0 0 0 0 0 0 0 0 0 0 0.25 0"/>
<feBlend mode="normal" in2="BackgroundImageFix" result="effect1_dropShadow_1_3"/>
<feBlend mode="normal" in="SourceGraphic" in2="effect1_dropShadow_1_3" result="shape"/>
</filter>
<filter id="filter1_d_1_3" x="0" y="0" width="296.7" height="296.6" filterUnits="userSpaceOnUse" color-interpolation-filters="sRGB">
<feFlood flood-opacity="0" result="BackgroundImageFix"/>
<feColorMatrix in="SourceAlpha" type="matrix" values="0 0 0 0 0 0 0 0 0 0 0 0 0 0 0 0 0 0 127 0" result="hardAlpha"/>
<feOffset dy="5"/>
<feGaussianBlur stdDeviation="4"/>
<feComposite in2="hardAlpha" operator="out"/>
<feColorMatrix type="matrix" values="0 0 0 0 0 0 0 0 0 0 0 0 0 0 0 0 0 0 0.3 0"/>
<feBlend mode="normal" in2="BackgroundImageFix" result="effect1_dropShadow_1_3"/>
<feBlend mode="normal" in="SourceGraphic" in2="effect1_dropShadow_1_3" result="shape"/>
</filter>
<linearGradient id="paint0_linear_1_3" x1="129" y1="129" x2="175.912" y2="157.904" gradientUnits="userSpaceOnUse">
<stop stop-color="#FFDE3B"/>
<stop offset="1" stop-color="#FFAD06"/>
</linearGradient>
<linearGradient id="paint1_linear_1_3" x1="241.5" y1="258" x2="50.5" y2="38" gradientUnits="userSpaceOnUse">
<stop stop-color="#BD34FE" stop-opacity="0.8"/>
<stop offset="1" stop-color="#41D1FF" stop-opacity="0.8"/>
</linearGradient>
</defs>
</svg>
